<svg display="none" version="1.1" xmlns="http://www.w3.org/2000/svg" xmlns:xlink="http://www.w3.org/1999/xlink">
    <defs>
        <g id="header-catalog-burger">
            <path stroke="#fff" stroke-width="2" d="M0 1h16M0 6h13M0 11h16"/>
        </g>
        <g id="header-links-hz">
            <path d="M16 9V2a1 1 0 00-1-1H2a1 1 0 00-1 1v22a1 1 0 001 1h11.375" stroke="#00415A" stroke-width="2"/>
            <path d="M1 12.5h8.5m20.5 8H19.5M6 8l4 4.235L6 17m17-1l-4 4.5 4 4.5" stroke="#00415A"/>
            <path d="M29 10H14v22h15V10z" stroke="#00415A" stroke-width="2"/>
            <path d="M29.5 10a.5.5 0 00-.5-.5H14a.5.5 0 00-.5.5v22a.5.5 0 00.5.5h15a.5.5 0 00.5-.5V10z" stroke="#00415A"/>
        </g>
        <g id="header-links-like">
            <path d="M8.01194 1.27536L9.76604 5.20698L9.8835 5.47025L10.1703 5.5002L14.4533 5.94748L11.2546 8.83414L11.0404 9.02744L11.1003 9.30948L11.9946 13.5214L8.26359 11.3739L8.01376 11.2301L7.76397 11.3744L4.03375 13.5303L4.92655 9.31634L4.98634 9.03416L4.77207 8.84134L1.57233 5.96179L5.85512 5.505L6.14191 5.47441L6.25927 5.21088L8.01194 1.27536Z" stroke="#00415A" />
        </g>
        <g id="header-links-lk">
            <rect x="-1" y="1" width="10.444" height="14" rx="5.222" transform="matrix(-1 0 0 1 20.222 6.222)" stroke="#00415A" stroke-width="2"/>
            <path d="M27.89 25.582c-2.324-.342-7.222-1.85-8.22-5.137M4.697 25.582c2.324-.342 7.222-1.85 8.22-5.137" stroke="#00415A" stroke-width="2"/>
            <circle r="15" transform="matrix(-1 0 0 1 16 16)" stroke="#00415A" stroke-width="2"/>
        </g>
        <g id="header-menu-button-icon">
            <rect x=".5" y=".5" width="18" height="21" rx="1.5" stroke="#00415A"/>
            <path stroke="#00415A" d="M4 6.5h11m-11 4h8m-8 4h11"/>
        </g>
        <g id="header-search-button">
            <path fill-rule="evenodd" clip-rule="evenodd" d="M5.422 13.478a7.643 7.643 0 10-.9-.9L0 17.099.9 18l4.522-4.522zm9.439-1.332a6.369 6.369 0 11-9.007-9.007 6.369 6.369 0 019.007 9.007z" fill="#E30613"/>
        </g>
        <g id="header-cart">
            <path d="M1 1H6.30534L11.3498 19H30" stroke="#00415A" stroke-width="2" stroke-linecap="round" stroke-linejoin="round"/>
            <path d="M17 27C18.6569 27 20 25.6569 20 24C20 22.3431 18.6569 21 17 21C15.3431 21 14 22.3431 14 24C14 25.6569 15.3431 27 17 27Z" fill="#00415A"/>
            <path d="M27 27C28.6569 27 30 25.6569 30 24C30 22.3431 28.6569 21 27 21C25.3431 21 24 22.3431 24 24C24 25.6569 25.3431 27 27 27Z" fill="#00415A"/>
            <path d="M13.3666 14.5194L10.6775 4.51936C10.3358 3.24871 11.2931 2 12.6089 2H31.3911C32.7069 2 33.6642 3.24871 33.3225 4.51936L30.6334 14.5194C30.3986 15.3929 29.6066 16 28.7021 16H15.2979C14.3934 16 13.6014 15.3929 13.3666 14.5194Z" fill="#E30613"/>
        </g>
        <g id="header-geo">
            <path d="M8 4.56757C8 4.96429 7.80398 5.63617 7.38984 6.5283C6.99273 7.38373 6.45442 8.31943 5.90296 9.19823C5.40173 9.99698 4.8991 10.7338 4.5 11.2997C4.1009 10.7338 3.59827 9.99698 3.09704 9.19823C2.54558 8.31943 2.00727 7.38373 1.61016 6.5283C1.19602 5.63617 1 4.96429 1 4.56757C1 2.58315 2.581 1 4.5 1C6.419 1 8 2.58315 8 4.56757Z" stroke="#00415A" stroke-width="2" />
        </g>

        <g id="action-compare">
            <path d="M13.5 5V1L0.5 1V18.5H10.725" />
            <path d="M22.5 14H15.5" />
            <path d="M0 9.5H7" />
            <path d="M18 11L15 14L18 17" />
            <path d="M5 6.5L7.5 9.5L5 12.5" />
            <rect x="-0.5" y="0.5" width="12" height="17" transform="matrix(-1 0 0 1 22 5)" />
        </g>
        <g id="action-favorite">
            <path d="M8.01194 1.27536L9.76604 5.20698L9.8835 5.47025L10.1703 5.5002L14.4533 5.94748L11.2546 8.83414L11.0404 9.02744L11.1003 9.30948L11.9946 13.5214L8.26359 11.3739L8.01376 11.2301L7.76397 11.3744L4.03375 13.5303L4.92655 9.31634L4.98634 9.03416L4.77207 8.84134L1.57233 5.96179L5.85512 5.505L6.14191 5.47441L6.25927 5.21088L8.01194 1.27536Z" />
        </g>
        
        <g id="main_slider-button-back">
            <path d="M14.2 5.34283H1.17138M1.17138 5.34283L5.51424 0.35582M1.17138 5.34283L5.51424 10.6415" stroke="#00415A" />
        </g>
        <g id="main_slider-button-next">
            <path d="M0.800049 5.34283H13.8286M13.8286 5.34283L9.48576 0.35582M13.8286 5.34283L9.48576 10.6415" stroke="#00415A" />
        </g>
        
        <g id="arrow-up">
            <path d="M1 5.76855 L6 0.768555 L11 5.76855" stroke="#00415A" />
        </g>
        <g id="arrow-down">
            <path d="M1 0.768555 L6 5.76855 L11 0.768555" stroke="#00415A" />
        </g>

        <g id="payment-item-halva">
            <path fill-rule="evenodd" clip-rule="evenodd" d="M32.0457 14.847C31.0828 14.8495 30.1408 14.5674 29.339 14.0363C28.5372 13.5052 27.9116 12.749 27.5414 11.8635C27.1712 10.978 27.073 10.003 27.2593 9.06191C27.4456 8.12081 27.908 7.25591 28.5879 6.57675C29.2679 5.89759 30.1348 5.43466 31.079 5.24659C32.0231 5.05853 33.0022 5.15378 33.8918 5.52028C34.7817 5.88678 35.5425 6.50806 36.0777 7.30547C36.6127 8.10288 36.8985 9.04053 36.8985 9.99975C36.8995 11.2834 36.3887 12.5149 35.4787 13.4238C34.569 14.3326 33.3342 14.8445 32.0457 14.847ZM32.0457 2.47191e-05C30.3571 -0.00371516 28.6949 0.416972 27.2128 1.22315C25.7308 2.02933 24.4769 3.19494 23.5672 4.61209C22.6574 6.02925 22.1212 7.65216 22.0082 9.33059C21.8951 11.009 22.209 12.6887 22.9206 14.2142C23.6322 15.7398 24.7187 17.0617 26.0793 18.0579C27.44 19.054 29.0309 19.6921 30.7049 19.9131C32.3787 20.134 34.0815 19.9307 35.6559 19.322C37.2299 18.7132 38.6243 17.7187 39.7102 16.4305C39.0471 17.6587 38.0884 18.688 36.978 19.3348V19.8511H42.0583V9.94788C42.0464 7.30856 40.9865 4.78116 39.1106 2.91741C37.2347 1.05365 34.695 0.00488203 32.0457 2.47191e-05ZM80.2215 14.9445H73.6136V11.699H80.0965C80.9069 11.699 81.8527 12.4585 81.8527 13.3218C81.8527 13.948 81.3611 14.9445 80.2215 14.9445ZM73.6136 5.06328L79.1635 5.06084C79.7651 5.06084 80.7586 5.67972 80.7586 6.66953C80.7586 7.45941 80.1153 8.30906 78.9967 8.30906H73.6136V5.06328ZM84.7357 9.40159C85.9407 7.57653 86.0516 5.08259 84.9506 3.21681C84.4053 2.29395 83.6294 1.52763 82.6983 0.992631C81.767 0.457634 80.7125 0.172235 79.6375 0.164277L68.533 0.163117V19.8511L80.9584 19.843C84.856 19.843 87.0313 16.6384 87.0313 13.9494C87.0313 11.3621 85.5543 10.0647 84.7357 9.40159ZM63.5087 7.41809C65.176 11.9 65.2612 15.9663 65.2612 19.8514H60.1036C60.1036 16.7 59.9927 13.8305 59.3306 11.2364C58.4432 7.75906 56.7909 5.23116 55.2555 5.23103C53.72 5.23091 52.0665 7.75906 51.1791 11.2364C50.5169 13.8305 50.4073 16.6252 50.4073 19.8514H45.2498C45.2498 16.3157 45.3336 11.9 47.0013 7.41809C48.5553 3.24266 51.4593 0.000372622 55.2555 0.000372622C59.0516 0.000372622 61.9544 3.24266 63.5087 7.41809ZM14.8668 0.162883H20.0256V2.23677C20.0271 3.72569 19.6945 5.19616 19.0523 6.54059C18.4101 7.88506 17.4743 9.06953 16.3136 10.0074C17.4743 10.9453 18.4101 12.1298 19.0523 13.4743C19.6945 14.8188 20.0271 16.2892 20.0256 17.7781V19.852H14.8668V17.2587C14.8668 15.9763 14.3555 14.7465 13.4453 13.8398C12.5351 12.933 11.3006 12.4236 10.0134 12.4236C8.72619 12.4236 7.49169 12.933 6.5815 13.8398C5.6713 14.7465 5.15994 15.9763 5.15994 17.2587V19.8511H3.99516e-06V17.7772C-0.00128012 16.2882 0.331467 14.8177 0.97391 13.4732C1.61635 12.1288 2.55226 10.9443 3.71322 10.0065C2.55222 9.06872 1.61629 7.88428 0.973841 6.53984C0.331391 5.19537 -0.00132994 3.72487 3.99516e-06 2.23584V0.162534H5.15994V2.75489C5.15994 4.03725 5.6713 5.26709 6.5815 6.17384C7.49169 7.08063 8.72619 7.59003 10.0134 7.59003C11.3006 7.59003 12.5351 7.08063 13.4453 6.17384C14.3555 5.26709 14.8668 4.03725 14.8668 2.75489V0.162883ZM98.9871 14.8473C98.0243 14.8499 97.0822 14.5677 96.2806 14.0366C95.4787 13.5055 94.8532 12.7494 94.4829 11.8639C94.1129 10.9784 94.0145 10.0034 94.2008 9.06225C94.3871 8.12116 94.8495 7.25625 95.5295 6.57709C96.2093 5.89794 97.0763 5.435 98.0205 5.24694C98.9648 5.05887 99.9436 5.15413 100.833 5.52063C101.723 5.88716 102.484 6.50841 103.019 7.30581C103.554 8.10322 103.84 9.04087 103.84 10.0001C103.841 11.2838 103.33 12.5154 102.421 13.4243C101.511 14.3332 100.276 14.845 98.9871 14.8473ZM108.999 9.94822C108.985 7.60141 108.142 5.33431 106.619 3.54428C105.095 1.75423 102.988 0.555456 100.667 0.158068C98.345 -0.23932 95.9568 0.190024 93.9209 1.37085C91.8851 2.55168 90.3315 4.40866 89.5323 6.61628C88.7329 8.82394 88.7392 11.2414 89.5496 13.445C90.3601 15.6486 91.9231 17.4977 93.9649 18.6682C96.0067 19.8388 98.3968 20.2561 100.717 19.847C103.036 19.4379 105.138 18.2285 106.652 16.4308C105.989 17.659 105.03 18.6884 103.919 19.3352V19.8514H109V9.94788L108.999 9.94822Z" fill="#fff"/>
        </g>
        <g id="payment-item-maestro">
            <path d="M20.32 0c-2.241 0-4.283.881-5.822 2.327C12.958.882 10.918.002 8.68.002h-.056C3.858.034 0 4.052 0 9c0 4.967 3.889 8.997 8.679 8.997 2.238 0 4.278-.88 5.819-2.325a8.77 8.77 0 01-.888-.983h1.793a8.85 8.85 0 01-.881.963h-.002v.002c-.007.006-.015.011-.022.019C16.038 17.12 18.082 18 20.324 18c4.794-.001 8.677-4.031 8.676-9v-.004C28.999 4.027 25.112 0 20.32 0zm-6.61 3.256h1.65c.243.305.47.627.673.964H13.09c.188-.322.396-.652.619-.964zm-1.133 1.91h3.955c.142.312.267.633.374.963h-4.798c.048-.093.215-.468.469-.964zm-4.374 5.991h-1.03l.614-3.333-1.41 3.333h-.932l-.172-3.31-.613 3.31h-.933l.798-4.334h1.607l.073 2.684 1.14-2.684h1.67l-.812 4.334zm3.643-1.872l-.22 1.252-.037.224-.024.179-.013.12-.012.096h-.858l.024-.365c-.257.29-.613.425-1.079.425-.552 0-.932-.393-.932-.961 0-.858.662-1.36 1.802-1.36.11 0 .258.011.417.028.025-.116.037-.165.037-.23 0-.232-.184-.319-.662-.319-.295 0-.626.037-.846.097l-.147.039-.086.023.135-.794c.515-.135.846-.186 1.226-.186.883 0 1.35.359 1.35 1.034 0 .175-.013.306-.075.698zm2.05-1.74c.845 0 1.385.499 1.385 1.28 0 .262-.037.514-.124.872h-2.034c-.013.054-.013.078-.013.112 0 .407.307.615.895.615.369 0 .7-.068 1.067-.223l-.171.883a3.848 3.848 0 01-1.043.142c-1.152 0-1.753-.542-1.753-1.58 0-1.21.76-2.1 1.79-2.1zm2.148 6.218h-3.08a9.098 9.098 0 01-.513-.963h4.098c-.15.333-.319.654-.505.963zm1.886-5.321a6.676 6.676 0 00-.748-.052c-.332 0-.503.097-.503.286 0 .165.049.205.478.384.527.214.736.498.736.981 0 .805-.503 1.177-1.607 1.177a7.369 7.369 0 01-.846-.062l-.184-.035-.049-.01.147-.813c.331.097.615.14.933.14.404 0 .588-.099.588-.319 0-.16-.061-.213-.478-.389-.552-.23-.797-.538-.797-.982 0-.652.405-1.193 1.558-1.193.245 0 .65.03.919.07l-.147.817zm1.608 1.926c.11 0 .195-.01.269-.034l-.135.783a2.59 2.59 0 01-.736.115c-.527 0-.81-.275-.81-.775 0-.1.013-.205.025-.316l.062-.347.049-.28.478-2.69h1.017l-.146.809h.527l-.148.858h-.527l-.27 1.47c-.012.064-.012.113-.012.146 0 .183.11.26.357.261zm2.509-1.743c-.49 0-.65.378-1.018 2.534h-1.03l.625-3.526h.933l-.099.535c.32-.416.564-.572.896-.572.037 0 .074.003.11.008 0 .002.038.009.088.021.012.004.024.004.11.039l-.366.996-.123-.026a.959.959 0 00-.127-.01zm1.82 2.627c-1.168 0-1.633-.732-1.633-1.626 0-1.248.797-2.096 2.023-2.096 1.069 0 1.633.697 1.633 1.59 0 .22 0 .235-.025.44-.16 1.172-.945 1.693-1.999 1.692zm2.108-.095a.274.274 0 01-.27-.276c0-.15.123-.274.27-.274.148 0 .27.124.27.274a.274.274 0 01-.27.276z" fill="#fff"/>
            <path d="M25.974 10.672a.212.212 0 00-.208.21c0 .117.098.21.208.21.111 0 .197-.094.197-.21 0-.115-.086-.21-.197-.21zm.098.332h-.062l-.037-.095h-.037v.095h-.05v-.244h.099a.13.13 0 01.062.014.092.092 0 01.025.061c0 .026-.013.052-.037.063l.037.106z" fill="#fff"/>
            <path d="M25.998 10.81c0-.006-.024-.006-.036-.006h-.026v.063h.038s.012 0 .024-.005c.013-.006.013-.017.013-.028 0-.01 0-.02-.013-.024zM13.882 8.353c-.331 0-.564.224-.662.632l1.14.003v-.183c0-.286-.171-.452-.478-.452zm-3.325 1.221c-.575 0-.87.18-.87.536 0 .22.136.36.368.36.418 0 .712-.362.736-.883a1.854 1.854 0 00-.234-.013zm13.675-1.181c-.527 0-.846.643-.846 1.209 0 .479.22.8.589.793.221 0 .699-.316.785-.864.024-.128.036-.27.036-.423 0-.367-.146-.716-.564-.715z" fill="#fff"/>
        </g>
        <g id="payment-item-mc">
            <path d="M13.245 16.258a.777.777 0 00.224.174 8.48 8.48 0 01-4.806 1.51c-4.75 0-8.663-4.007-8.663-9C0 3.948 3.912 0 8.663 0c1.788 0 3.409.58 4.806 1.51-.056.058-.168.116-.223.174A9.9 9.9 0 0010.06 9c-.056 2.729 1.118 5.4 3.185 7.258zM19.337 0c-1.788 0-3.409.58-4.806 1.51.056.058.168.116.223.174A9.9 9.9 0 0117.94 9a9.995 9.995 0 01-3.186 7.316.757.757 0 01-.223.174A8.479 8.479 0 0019.337 18C24.087 18 28 13.993 28 9c-.056-4.994-3.912-9-8.663-9zm-5.365 1.916a.687.687 0 00-.28.29C11.849 3.832 10.73 6.271 10.73 9c0 2.729 1.174 5.11 2.963 6.793.111.117.223.175.335.29.112-.115.223-.173.335-.29 1.845-1.625 2.962-4.064 2.962-6.793s-1.173-5.11-2.962-6.794c-.167-.116-.28-.232-.39-.29z" fill="#fff"/>
        </g>
        <g id="payment-item-mir">
            <path fill-rule="evenodd" clip-rule="evenodd" d="M13.995 0v.006c-.006 0-2.029-.006-2.568 1.834-.494 1.688-1.887 6.346-1.926 6.474h-.385S7.691 3.552 7.19 1.834C6.65-.006 4.622 0 4.622 0H0v14h4.622V5.686h.385L7.704 14h3.21l2.696-8.308h.385V14h4.622V0h-4.622zm16.948 0s-1.354.116-1.99 1.467L25.68 8.314h-.385V0h-4.622v14h4.365s1.419-.122 2.054-1.467l3.21-6.847h.385V14h4.623V0h-4.366zm6.42 6.358V14h4.622V9.537h5.008c2.182 0 4.031-1.327 4.718-3.179H37.363zM46.993 0H36.715c.513 2.666 2.612 4.805 5.328 5.502a7.734 7.734 0 001.932.245h7.922c.07-.318.103-.642.103-.978C52 2.134 49.76 0 46.993 0z" fill="#fff"/>
        </g>
        <g id="payment-item-sb">
            <path d="M21.63 6.992c0-2.06 1.307-3.401 3.65-3.401 1.051 0 1.677.185 2.122.379l-.313.758c-.566-.167-.98-.287-1.788-.287-1.435-.009-2.56.712-2.56 2.46 0 1.783 1.166 2.56 2.752 2.56.676 0 1.192-.093 1.666-.232l.253.777c-.535.185-1.101.323-2.091.323-2.434 0-3.692-1.33-3.692-3.337zm6.482.408c0-1.036.212-2.663.848-3.208.556-.481 2.04-.805 3.768-1.1l.172.868c-1.536.24-2.9.463-3.233.758-.293.26-.424.85-.485 1.295a4.196 4.196 0 011.879-.453c1.323 0 2.162.6 2.162 2.135 0 1.802-1.142 2.607-2.667 2.607-1.515 0-2.444-.87-2.444-2.903zm4.05.332c0-.804-.374-1.424-1.374-1.424-.636 0-1.141.204-1.636.435-.01.166-.02.407-.02.573 0 1.507.495 2.21 1.505 2.21 1.192 0 1.525-.925 1.525-1.794zm1.928.055c0-1.996 1.11-2.745 2.494-2.745 1.546 0 2.193.897 2.193 2.542v.342H35.15c.01 1.331.839 1.6 1.808 1.6.526 0 .97-.075 1.516-.223l.181.75c-.484.166-1.141.276-1.858.276-1.647 0-2.707-.591-2.707-2.542zm3.596-.536c0-.896-.354-1.479-1.162-1.479-.727 0-1.273.49-1.343 1.48h2.505zm2.154-2.08h1.05v.398c.475-.305.91-.518 1.586-.518 1.303 0 2.192.832 2.192 2.515 0 2.061-1.333 2.754-2.818 2.754-.343 0-.717-.046-.96-.074v2.006h-1.05v-7.08zm3.757 2.44c0-.914-.353-1.737-1.414-1.737-.575 0-1.01.24-1.292.379v3.198c.13.019.565.093.939.093 1.262 0 1.767-.805 1.767-1.932zM45.58 7.4c0-1.036.212-2.663.849-3.208.555-.481 2.04-.805 3.767-1.1l.172.868c-1.535.24-2.9.463-3.233.758-.292.26-.423.85-.484 1.295a4.196 4.196 0 011.878-.453c1.324 0 2.162.6 2.162 2.135 0 1.802-1.141 2.607-2.666 2.607-1.516 0-2.445-.87-2.445-2.903zm4.05.332c0-.804-.373-1.424-1.373-1.424-.636 0-1.142.204-1.637.435-.01.166-.02.407-.02.573 0 1.507.495 2.21 1.505 2.21 1.192 0 1.526-.925 1.526-1.794zm1.74 1.128c0-1.276 1.233-1.535 2.193-1.544l1.202-.019v-.545c0-.693-.384-.878-1.192-.878-.586 0-1.07.092-1.546.24l-.222-.73a5.333 5.333 0 011.94-.342c1.323 0 2.05.425 2.05 1.451v2.635c0 .314.293.379.576.388l-.084.74c-.07.009-.138.018-.21.018-.565 0-1.12-.157-1.221-.61-.344.24-.91.638-1.788.638-1.02 0-1.697-.509-1.697-1.442zm3.395.222V7.917l-1.172.046c-.758.019-1.192.314-1.192.832 0 .508.404.74.94.74.494 0 1.03-.222 1.424-.453zm2.508-3.911h1.06v2.136h2.596V5.17h1.06v5.048h-1.06V8.074h-2.596v2.145h-1.06V5.17zm6.017 0h1.06v5.048h-1.06V5.17zm2.67 4.179l-1.57-1.72 2.195-2.459h1.192l-2.246 2.385 1.094 1.11c.485.508.93.804 1.374.915l-.182.72c-.515-.027-1.131-.138-1.858-.951zM15.921 6.716c0 4.022-3.563 7.284-7.96 7.284S0 10.738 0 6.716c0-.164.007-.326.019-.486l4.82 2.537 10.208-5.374c.56.996.874 2.125.874 3.323zm-11.083.217L.351 4.572a6.67 6.67 0 00-.215.803L4.838 7.85l9.771-5.143a7.69 7.69 0 00-.52-.643l-9.25 4.87zm8.644-5.465a7.906 7.906 0 00-.699-.549L4.838 5.101 1.046 3.104c-.143.23-.274.467-.39.712l4.182 2.2 8.644-4.548zM4.838 4.185L11.98.427A8.272 8.272 0 0011.05 0L4.837 3.269 2.073 1.813a7.582 7.582 0 00-.555.624l3.32 1.748z" fill="#fff"/>
        </g>
        <g id="payment-item-sbp">
            <path fill="#FFFFFF" d="M208.664,45.281v29.338h-10.476v-20.58h-10.087v20.58
		h-10.477v-29.34h31.039V45.281z"/>
            <path fill="#FFFFFF" d="M156.111,75.668c9.377,0,16.342-5.75,16.342-14.467
		c0-8.437-5.139-13.915-13.726-13.915c-3.963,0-7.233,1.395-9.696,3.802c0.588-4.975,4.795-8.607,9.428-8.607
		c1.068,0,9.117-0.017,9.117-0.017l4.551-8.709c0,0-10.104,0.23-14.801,0.23c-10.732,0.187-17.981,9.942-17.981,21.79
		C139.345,69.578,146.414,75.668,156.111,75.668z M156.168,55c3.481,0,5.896,2.288,5.896,6.2c0,3.521-2.146,6.422-5.896,6.43
		c-3.588,0-6.002-2.688-6.002-6.37C150.166,57.347,152.58,55,156.168,55z"/>
            <path fill="#FFFFFF" d="M130.817,64.797c0,0-2.474,1.426-6.169,1.696
		c-4.248,0.126-8.033-2.558-8.033-7.324c0-4.65,3.34-7.315,7.925-7.315c2.813,0,6.533,1.949,6.533,1.949s2.721-4.995,4.131-7.493
		c-2.582-1.957-6.021-3.03-10.021-3.03c-10.095,0-17.914,6.582-17.914,15.83c0,9.367,7.349,15.795,17.914,15.601
		c2.953-0.109,7.026-1.146,9.511-2.742L130.817,64.797z"/>
            <g>
                <path fill="#FFFFFF" d="M2,26.12l14.532,26.951v13.863L2.017,93.863L2,26.12z"/>
                <path fill="#FFFFFF" d="M57.797,42.643l12.745-7.797l28.741-0.575L57.797,59.686V42.643z"/>
                <path fill="#FFFFFF" d="M57.722,27.086l0.075,33.271l-14.566-8.95V0L57.722,27.086z"/>
                <path fill="#FFFFFF" d="M99.282,34.271l-28.824-0.55L58.741,26.62L43.231,0l56.05,34.271H99.282z"/>
                <path fill="#FFFFFF" d="M57.797,93.169V77.322l-14.566-8.78L43.239,120L57.797,93.169z"/>
                <path fill="#FFFFFF" d="M70.663,85.269L17.46,52.686L2,26.12l97.223,59.583L70.663,85.269z"/>
                <path fill="#FFFFFF" d="M43.24,120l15.291-26.362l12.002-7.437l28.688-0.498L43.24,120z"/>
                <path fill="#FFFFFF" d="M2.017,93.863l41.333-25.32l-13.896-8.525l-12.122,7.432L2.017,93.863z"/>
            </g>
        </g>
        <g id="payment-item-visa">
            <path d="M3.766 13.32L2.35 3.123l3.439 2.17L0 .691h5.563l.563 5.999c.07.712.128 1.412.181 2.132.29-.69.627-1.443 1.016-2.274L10.08.692h3.658L7.25 13.32H3.766zm9.194 0L15.35.693h3.274L16.237 13.32H12.96zm8.81.18c-1.494 0-2.844-.345-3.611-.922l-.225-.172 1.107-2.741.37.223a5.2 5.2 0 002.605.707c.697 0 1.515-.272 1.515-1.029 0-.395-.229-.743-1.4-1.35-1.242-.674-2.66-1.677-2.66-3.484C19.471 2.24 21.545.5 24.513.5c1.214 0 2.186.213 2.968.646l.276.152-1.046 2.815-.374-.205a4.311 4.311 0 00-1.961-.484c-1.054 0-1.502.46-1.502.885 0 .456.58.818 1.539 1.355 1.705.9 2.537 2.034 2.537 3.464 0 2.615-2.08 4.372-5.18 4.372z" fill="#fff"/>
            <path fill-rule="evenodd" clip-rule="evenodd" d="M34.598 13.32l-.245-3.084h-2.837l-1.407 3.085h-3.51L32.721.69h3.805L38 13.322h-3.402zm-1.07-7.8c.132-.285.266-.606.397-.944l.007.093c.021.265.042.513.056.731l.196 2.16h-1.592l.936-2.04z" fill="#fff"/>
        </g>
        <g id="payment-item-ym">
            <path d="M291.674 17.345L284.697 34.4905C284.497 34.6899 284.497 35.0886 284.497 35.288L284.298 35.6867L284.098 35.288C284.098 35.0886 283.899 34.6899 283.899 34.4905L276.921 17.345H267.95L279.712 46.6519L274.728 57.8165H283.7L300.247 17.345H291.674Z" fill="#fff"/>
            <path d="M225.484 18.94C223.889 17.7438 221.895 16.9464 219.503 16.747C215.515 16.3483 211.727 17.7438 209.135 20.3356V17.1457H200.961V46.4527H209.135V31.1014C209.135 27.7122 209.734 26.7153 210.332 25.9179C211.329 24.3229 213.123 23.5255 215.316 23.5255C217.509 23.5255 219.503 24.5223 220.499 26.1172C221.098 27.3134 221.297 28.9084 221.297 29.7058C221.297 32.2976 221.297 46.4527 221.297 46.4527H229.471V28.709C229.471 24.1236 228.275 20.9337 225.484 18.94Z" fill="#fff"/>
            <path d="M185.611 17.5444C181.623 16.1488 177.237 16.3482 173.25 18.1425C170.658 19.3387 168.266 21.3324 166.87 23.9241C165.475 26.1172 164.876 28.9083 164.876 31.8988C164.876 34.8893 165.475 37.6805 166.87 39.8735C168.266 42.0665 170.06 44.0602 172.452 45.2564C174.845 46.4526 177.636 47.2501 180.228 47.2501C181.623 47.2501 183.019 47.0507 184.414 46.652C185.611 46.2532 186.807 45.8545 188.003 45.2564C190.395 43.8608 192.389 42.0665 193.585 39.8735C194.981 37.6805 195.579 34.8893 195.579 31.8988C195.579 25.3197 191.791 19.7374 185.611 17.5444ZM187.804 32.2975C187.604 34.8893 186.807 37.0824 185.212 38.4779C184.016 39.4748 182.221 40.0729 180.028 40.2722C177.835 40.2722 176.24 39.6741 174.845 38.4779C173.25 37.0824 172.452 34.8893 172.253 32.2975C172.054 29.307 173.25 26.9146 175.443 25.3197C176.639 24.5222 178.234 23.9241 179.829 23.9241C181.623 23.9241 183.019 24.5222 184.414 25.3197C186.807 26.7153 188.003 29.307 187.804 32.2975Z" fill="#fff"/>
            <path d="M155.307 18.9399C153.712 17.7437 151.718 16.9462 149.326 16.7468C148.927 16.7468 148.329 16.7468 147.93 16.7468C144.74 16.7468 141.949 18.1424 139.557 20.9335L139.158 21.5316H138.36C137.762 20.5348 136.965 19.7373 136.167 19.1392C134.572 17.943 132.579 17.1456 130.186 16.9462C126.398 16.5475 123.408 17.7437 120.816 20.5348V17.5443H112.642V46.8512H120.816V31.5V31.1012C120.816 27.9114 121.215 27.1139 121.813 26.1171C122.81 24.5221 124.604 23.5253 126.598 23.7247C128.591 23.7247 130.386 24.7215 131.383 26.3164C132.18 27.5126 132.18 28.9082 132.18 30.3038V46.6519H140.354V30.9019C140.354 27.9114 140.753 26.9145 141.351 25.9177C142.348 24.3228 144.142 23.5253 146.136 23.5253C148.129 23.5253 149.724 24.5221 150.721 26.1171C151.319 27.1139 151.519 28.3101 151.519 29.1076C151.519 29.5063 151.519 29.905 151.519 30.1044V46.4525H159.693V28.5095C159.693 26.9145 159.493 25.3196 159.095 23.924C158.297 21.9304 157.101 20.1361 155.307 18.9399Z" fill="#fff"/>
            <path d="M260.173 37.6804C258.977 38.8766 256.186 41.0696 252.398 41.269C249.208 41.4683 246.816 40.4715 245.021 38.6772C244.224 37.8797 243.626 36.6835 243.227 35.4873H265.756V35.288C265.955 34.0918 266.154 33.0949 266.154 31.8987C266.154 30.9019 265.955 29.5063 265.556 27.712C264.559 24.3228 262.566 21.731 259.974 19.7373C256.983 17.5443 254.192 16.9462 253.395 16.9462C247.613 15.9494 241.034 18.5411 237.645 23.924C235.252 27.712 235.452 31.5 235.452 32.6962C235.452 34.0918 235.651 38.4778 239.24 42.4652C243.427 47.0506 249.208 47.25 251.002 47.4494C258.977 47.6487 264.36 42.6645 265.556 41.6677L260.173 37.6804ZM246.218 25.3196C247.414 24.5221 248.809 23.924 250.604 23.924C252.398 23.924 253.794 24.5221 255.189 25.3196C256.385 26.3164 257.382 27.5126 257.98 28.9082H243.626C244.025 27.5126 244.822 26.1171 246.218 25.3196Z" fill="#fff"/>
            <path d="M57.2192 0C39.6749 0 25.7192 14.1551 25.7192 31.5C25.7192 49.0443 39.8743 63 57.2192 63C74.5642 63 88.7192 48.8449 88.7192 31.5C88.7192 14.1551 74.5642 0 57.2192 0ZM57.2192 43.0633C50.8395 43.0633 45.4566 37.6804 45.4566 31.3006C45.4566 24.9209 50.8395 19.538 57.2192 19.538C63.599 19.538 68.9819 24.9209 68.9819 31.3006C68.7825 37.8797 63.599 43.0633 57.2192 43.0633Z" fill="#fff"/>
            <path d="M25.519 8.97156V54.826H14.3544L0 8.97156H25.519Z" fill="#fff"/>
        </g>

        <g id="social-vk">
            <path clip-rule="evenodd" d="m3.36827 3.36827c-3.36827 3.36827-3.36827 8.78943-3.36827 19.63173v2c0 10.8423 0 16.2635 3.36827 19.6317 3.36827 3.3683 8.78943 3.3683 19.63173 3.3683h2c10.8423 0 16.2635 0 19.6317-3.3683 3.3683-3.3682 3.3683-8.7894 3.3683-19.6317v-2c0-10.8423 0-16.26346-3.3683-19.63173-3.3682-3.36827-8.7894-3.36827-19.6317-3.36827h-2c-10.8423 0-16.26346 0-19.63173 3.36827zm6.13183 11.63173h3.5008c.8947 0 1.2313.3915 1.5668 1.3607 1.7122 4.9864 4.5991 9.3442 5.7859 9.3442.445 0 .6492-.2049.6492-1.3349v-5.1542c-.0804-1.4671-.593-2.1016-.9727-2.5715-.2345-.2903-.4183-.5177-.4183-.8398 0-.3915.3346-.8045.8908-.8045h5.5013c.7419 0 1.0002.3966 1.0002 1.2866v6.9339c0 .7415.3221 1.0011.5446 1.0011.4451 0 .816-.2596 1.632-1.0753 2.522-2.8181 4.3022-7.1565 4.3022-7.1565.2226-.519.633-.9898 1.5231-.9898h3.5008c1.0587 0 1.2812.5449 1.0587 1.2866-.4451 2.0393-4.7103 8.0463-4.7103 8.0463-.3709.5932-.5192.8899 0 1.5573.1829.256.573.6381 1.0195 1.0753.459.4495.9776.9574 1.3913 1.4462 1.5038 1.6913 2.6371 3.1182 2.9528 4.1016.2885.9867-.2116 1.4867-1.2119 1.4867h-3.5008c-.9377 0-1.4098-.5251-2.4301-1.6598-.4325-.481-.9634-1.0715-1.67-1.7779-2.077-2.0023-2.9671-2.2619-3.4864-2.2619-.7046 0-.9154.1996-.9154 1.1996v3.1388c0 .8612-.2753 1.3612-2.5006 1.3612-3.7089 0-7.7847-2.2512-10.6776-6.4041-4.33934-6.0811-5.5262-10.679-5.5262-11.6061 0-.519.20006-.9898 1.2003-.9898z" fill="#fff" fill-rule="evenodd"/>
        </g>
        <g id="social-fb">
            <path fill="#FFFFFF" d="M99.999,0C44.771,0,0,44.771,0,100c0,49.913,36.57,91.281,84.376,98.782v-69.87H58.979V100h25.397V77.964 c0-25.074,14.935-38.912,37.773-38.912c10.939,0,22.387,1.955,22.387,1.955v24.61h-12.613c-12.432,0-16.299,7.72-16.299,15.624V100 h27.73l-4.43,28.912h-23.301v69.87c47.807-7.502,84.377-48.869,84.377-98.782C200.001,44.771,155.228,0,99.999,0z"/>
        </g>
        <g id="social-yt">
            <path fill-rule="evenodd" clip-rule="evenodd" d="M20.5.49a2.873 2.873 0 012.026 2.014C23.02 4.292 23 8.019 23 8.019s0 3.708-.474 5.496A2.873 2.873 0 0120.5 15.53c-1.8.47-9 .47-9 .47s-7.18 0-9-.49a2.873 2.873 0 01-2.026-2.014C0 11.727 0 8 0 8s0-3.708.474-5.496A2.931 2.931 0 012.5.47c1.8-.47 9-.47 9-.47s7.2 0 9 .49zM9.207 4.573L15.194 8l-5.986 3.426V4.574z" fill="#fff"/>
        </g>
        <g id="social-in">
            <path d="M0 11.802V4.204l.016-.144A4.31 4.31 0 01.89 1.785C1.765.648 2.926.027 4.362.013 6.749-.011 9.136.006 11.524.006c.772 0 1.506.167 2.173.556 1.466.856 2.264 2.14 2.286 3.838.032 2.408.01 4.816.004 7.223 0 .272-.036.546-.087.813a4.255 4.255 0 01-1.046 2.086 4.38 4.38 0 01-2.724 1.439c-.112.015-.224.026-.336.039H4.198c-.022-.004-.043-.01-.065-.011a4.22 4.22 0 01-.928-.165 4.352 4.352 0 01-1.734-.966 4.386 4.386 0 01-1.432-2.72c-.016-.112-.026-.224-.039-.336zm7.996-8.24a4.436 4.436 0 00-4.441 4.437c-.005 2.453 1.983 4.418 4.387 4.446a4.447 4.447 0 004.495-4.439 4.439 4.439 0 00-4.44-4.444zm4.44-.889c.003.49.407.891.894.888a.894.894 0 00.885-.889.893.893 0 00-.89-.89.89.89 0 00-.888.891z" fill="#fff"/>
            <path d="M7.996 5.338a2.665 2.665 0 110 5.33 2.665 2.665 0 010-5.33z" fill="#fff"/>
        </g>
        <g id="phone">
            <path fill="#00415A" d="M90 180c-49.63 0-90-40.38-90-90C0 40.37 40.37 0 90 0s90 40.37 90 90c0 49.62-40.38 90-90 90zm0-169.16c-43.65 0-79.16 35.5-79.16 79.16 0 43.65 35.5 79.16 79.16 79.16s79.16-35.51 79.16-79.16S133.65 10.84 90 10.84z"/>
            <g fill="#E30917">
                <path d="M78.27 101.72c-9.74-9.74-11.94-19.49-12.43-23.38a3.5 3.5 0 011-2.94l7.88-7.88a3.51 3.51 0 00.5-4.35l-12.55-19.5a3.53 3.53 0 00-4.56-1.28l-20.15 9.5a3.48 3.48 0 00-1.94 3.5c1.06 10.02 5.43 34.68 29.66 58.92 24.24 24.23 48.9 28.61 58.93 29.66a3.5 3.5 0 003.5-1.93l9.5-20.16c.8-1.62.25-3.6-1.29-4.55l-19.49-12.55a3.51 3.51 0 00-4.36.5l-7.87 7.88a3.49 3.49 0 01-2.93 1c-3.9-.5-13.65-2.7-23.4-12.44z"/>
                <path d="M116.97 96.48a3.53 3.53 0 01-3.53-3.53 26.42 26.42 0 00-26.4-26.4 3.52 3.52 0 110-7.03 33.48 33.48 0 0133.45 33.44 3.53 3.53 0 01-3.52 3.52z"/>
                <path d="M134.56 96.48a3.52 3.52 0 01-3.52-3.53 44.04 44.04 0 00-44-44 3.52 3.52 0 110-7.03 51.1 51.1 0 0151.04 51.03 3.54 3.54 0 01-3.52 3.53z"/>
            </g>
        </g>
        <g id="oauth-yandex">
            <path fill="#EE4426" d="M199.999,100.002C199.999,155.227,155.226,200,100,200C44.771,200,0,155.227,0,100.002 C0,44.776,44.771,0,100,0C155.226,0,199.999,44.776,199.999,100.002z"/>
            <path fill="#FFFFFF" d="M114.704,55.182h-9.613c-17.62,0-26.869,8.831-26.869,21.922c0,14.854,6.406,21.747,19.572,30.583 l10.858,7.248l-31.32,46.502H54.019l28.121-41.545c-16.2-11.498-25.276-22.644-25.276-41.553c0-23.692,16.551-39.778,48.057-39.778 h31.318v122.875h-21.535V55.182z"/>
        </g>
        <g id="oauth-google">
            <path fill="#F9BC15" d="M42.621,99.997c0-6.496,1.054-12.735,2.975-18.573L11.951,55.699C5.393,69.034,1.709,84.064,1.709,99.997
		c0,15.927,3.68,30.95,10.23,44.281l33.629-25.783C43.664,112.678,42.621,106.465,42.621,99.997z"/>
            <path fill="#EA4535" d="M101.705,40.915c14.088,0,26.821,4.995,36.816,13.186l29.088-29.088C149.889,9.557,127.161,0,101.705,0
		c-39.52,0-73.49,22.629-89.754,55.699l33.645,25.725C53.353,57.854,75.478,40.915,101.705,40.915z"/>
            <path fill="#36A852" d="M101.705,159.092c-26.228,0-48.354-16.939-56.11-40.518l-33.643,25.729
		C28.216,177.375,62.186,200,101.705,200c24.391,0,47.694-8.657,65.172-24.907l-31.928-24.721
		C125.933,156.061,114.553,159.092,101.705,159.092z"/>
            <path fill="#36A852" d="M45.568,118.494l-33.629,25.783c0.004,0.009,0.009,0.018,0.013,0.026l33.643-25.729
		C45.586,118.548,45.577,118.521,45.568,118.494z"/>
            <path fill="#557EBF" d="M194.886,81.823h-93.181v38.646h53.638c-2.684,13.164-9.953,23.316-20.394,29.903l31.928,24.721
		c18.353-17.063,30.28-42.501,30.28-75.096C197.157,94.09,196.251,87.73,194.886,81.823z"/>
        </g>
        <g id="oauth-mailru">
            <path fill="#F99E1C" d="M130.082,100c0,16.586-13.492,30.078-30.082,30.078c-16.586,0-30.078-13.492-30.078-30.078
	c0-16.585,13.492-30.078,30.078-30.078C116.59,69.922,130.082,83.415,130.082,100 M100,0C44.857,0,0,44.856,0,100
	c0,55.143,44.857,100,100,100c20.199,0,39.68-6.016,56.33-17.391l0.283-0.201l-13.473-15.658l-0.225,0.145
	C130.098,175.145,115.258,179.5,100,179.5c-43.836,0-79.5-35.664-79.5-79.5c0-43.835,35.664-79.5,79.5-79.5
	c43.84,0,79.5,35.665,79.5,79.5c0,5.68-0.637,11.432-1.873,17.086c-2.51,10.32-9.738,13.477-15.16,13.064
	c-5.459-0.445-11.846-4.328-11.889-13.842v-7.252V100c0-27.894-22.686-50.579-50.578-50.579S49.422,72.106,49.422,100
	c0,27.893,22.686,50.578,50.578,50.578c13.549,0,26.256-5.295,35.834-14.93c5.574,8.672,14.65,14.111,24.988,14.938
	c0.885,0.072,1.793,0.107,2.686,0.107c7.277,0,14.488-2.434,20.301-6.842c5.992-4.561,10.473-11.139,12.943-19.045
	c0.393-1.279,1.123-4.199,1.123-4.223l0.02-0.104C199.35,114.135,200,107.813,200,100C200,44.856,155.143,0,100,0"/>
        </g>
        <g id="oauth-vk">
            <path fill="#2787F5" d="M0,95.833c0-45.176,0-67.766,14.034-81.799C28.068,0,50.657,0,95.833,0h8.333
 c45.176,0,67.766,0,81.801,14.034C200,28.068,200,50.657,200,95.833v8.334c0,45.174,0,67.764-14.033,81.799
 C171.932,200,149.342,200,104.166,200h-8.333c-45.176,0-67.766,0-81.799-14.033C0,171.932,0,149.342,0,104.168V95.833z"/>
            <path fill="#FFFFFF" d="M54.171,62.5H39.583c-4.167,0-5.001,1.961-5.001,4.124c0,3.863,4.946,23.021,23.026,48.358
 c12.053,17.305,29.037,26.686,44.491,26.686c9.27,0,10.416-2.084,10.416-5.674v-13.076c0-4.168,0.879-4.998,3.818-4.998
 c2.164,0,5.871,1.082,14.525,9.424c9.889,9.889,11.52,14.324,17.082,14.324h14.588c4.17,0,6.254-2.084,5.049-6.193
 c-1.314-4.102-6.039-10.043-12.305-17.09c-3.396-4.021-8.496-8.346-10.043-10.506c-2.164-2.783-1.545-4.021,0-6.49
 c0,0,17.773-25.032,19.625-33.528c0.928-3.09,0-5.361-4.41-5.361h-14.588c-3.711,0-5.42,1.961-6.348,4.124
 c0,0-7.414,18.077-17.924,29.82c-3.396,3.398-4.943,4.48-6.799,4.48c-0.928,0-2.271-1.082-2.271-4.171V67.861
 c0-3.709-1.074-5.361-4.166-5.361H85.427c-2.317,0-3.711,1.721-3.711,3.353c0,3.513,5.255,4.325,5.796,14.213v21.477
 c0,4.707-0.851,5.563-2.706,5.563c-4.944,0-16.974-18.157-24.106-38.936C59.302,64.132,57.898,62.5,54.171,62.5z"/>
        </g>
        <g id="oauth-facebook">
            <circle fill="#1977F3" cx="99.999" cy="100" r="100"/>
            <path fill="#FFFFFF" d="M138.926,128.913l4.43-28.913h-27.732V81.24c0-7.903,3.867-15.624,16.299-15.624h12.614v-24.61 c0,0-11.446-1.955-22.388-1.955c-22.838,0-37.772,13.837-37.772,38.912V100H58.979v28.913h25.397v69.877 c5.091,0.802,10.308,1.21,15.623,1.21c5.316,0,10.534-0.422,15.624-1.21v-69.877H138.926z"/>
        </g>
    </defs>
</svg>