<svg xmlns="http://www.w3.org/2000/svg" xml:space="preserve" viewBox="0 0 40.1 36.7"><path fill="#0f98d5" fill-rule="evenodd" d="M16.8 1.2a4.7 4.7 0 0 1 6.3-.1l15.6 14.3a3.8 3.8 0 0 1 0 5.7L23.1 35.5a4.6 4.6 0 0 1-6.2 0L1.3 21.2a3.8 3.8 0 0 1 0-5.7l9.6-8.8v11.7c0 4.6 4.1 8.4 9.2 8.4s9.2-3.8 9.2-8.4S25.1 10 20 10c-1.1 0-2.2.2-3.2.5V1.2zM20 15.4c1.7 0 3.2 1.3 3.2 2.9 0 1.6-1.4 2.9-3.2 2.9-1.7 0-3.2-1.3-3.2-2.9a3.2 3.2 0 0 1 3.2-2.9z" clip-rule="evenodd"/><path fill="#fff" fill-rule="evenodd" d="M16.8 1.2v9.2c1-.4 2.1-.5 3.2-.5 5.1 0 9.2 3.8 9.2 8.4s-4.1 8.4-9.2 8.4-9.2-3.8-9.2-8.4V6.6l6-5.4zM20 15.4c1.7 0 3.2 1.3 3.2 2.9 0 1.6-1.4 2.9-3.2 2.9-1.7 0-3.2-1.3-3.2-2.9a3.2 3.2 0 0 1 3.2-2.9z" clip-rule="evenodd"/><linearGradient id="a" x1="16.8" x2="21.4" y1="23.8" y2="23.8" gradientTransform="matrix(1 0 0 -1 0 38)" gradientUnits="userSpaceOnUse"><stop offset="0" stop-color="gray"/><stop offset="1" stop-color="#fff"/></linearGradient><path fill="url(#a)" fill-rule="evenodd" d="M16.8 10.5c1-.4 2.1-.5 3.2-.5l1.3.1v5.7a3 3 0 0 0-1.3-.3c-1.7 0-3.2 1.3-3.2 2.9v-7.9z" clip-rule="evenodd"/></svg>