<svg width="181" height="37" viewBox="0 0 181 37" fill="none" xmlns="http://www.w3.org/2000/svg">
<path fill-rule="evenodd" clip-rule="evenodd" d="M17.0413 1.23745C18.7651 -0.34287 21.6565 -0.444826 23.3803 1.1355L39.0052 15.4604C40.7289 17.0407 40.7289 19.6406 39.0052 21.1699L23.3803 35.4948C21.6565 37.0751 18.8207 37.0751 17.1525 35.4948L1.52761 21.1699C-0.196134 19.5896 -0.196134 16.9897 1.52761 15.4604L11.0916 6.69211C11.0916 10.5665 11.0916 14.4408 11.0916 18.3661C11.0916 23.0051 15.2064 26.7775 20.2664 26.7775C25.3264 26.7775 29.4412 23.0051 29.4412 18.3661C29.4412 13.7271 25.3264 9.95471 20.2664 9.95471C19.1543 9.95471 18.0422 10.1586 17.0413 10.4645V1.23745ZM20.2664 15.4094C21.9902 15.4094 23.4359 16.7348 23.4359 18.3151C23.4359 19.8955 21.9902 21.2209 20.2664 21.2209C18.5427 21.2209 17.0969 19.8955 17.0969 18.3151C17.0969 16.7348 18.5427 15.4094 20.2664 15.4094Z" fill="#0F98D5"/>
<path fill-rule="evenodd" clip-rule="evenodd" d="M17.0413 1.23746V10.4645C18.0422 10.1077 19.0987 9.95472 20.2664 9.95472C25.3264 9.95472 29.4412 13.7271 29.4412 18.3661C29.4412 23.0051 25.3264 26.7265 20.2664 26.7265C15.2064 26.7265 11.0916 22.9541 11.0916 18.3151V6.64114L17.0413 1.23746ZM20.2664 15.4094C21.9901 15.4094 23.4359 16.7348 23.4359 18.3151C23.4359 19.8955 21.9901 21.2209 20.2664 21.2209C18.5426 21.2209 17.0969 19.8955 17.0969 18.3151C17.0969 16.7348 18.5426 15.4094 20.2664 15.4094Z" fill="white"/>
<path d="M58.4669 29.3264C60.5242 29.3264 62.3036 28.7147 63.8605 27.4912C65.4174 26.2168 66.1403 24.7384 66.0847 22.9542C65.9735 20.3033 64.639 18.4171 62.1368 17.3466C64.0273 16.225 64.917 14.6957 64.917 12.6566C64.917 10.9743 64.1385 9.5469 62.6372 8.47636C61.1915 7.40582 59.5233 6.89604 57.5772 6.89604H50.6822V29.3774C50.6822 29.3264 58.4669 29.3264 58.4669 29.3264ZM53.1844 16.429V8.93517H57.5216C58.9117 8.93517 60.0238 9.24103 60.9135 9.90375C61.9143 10.5665 62.4148 11.5351 62.4148 12.7585C62.4148 13.8291 61.9143 14.7467 60.9691 15.4604C60.0238 16.1231 58.9117 16.4799 57.6328 16.4799L53.1844 16.429ZM53.1844 27.1853V18.4681H57.5216C59.2453 18.4681 60.6354 18.7739 61.6919 19.4367C62.8596 20.1504 63.4157 21.2209 63.5269 22.6993C63.6937 25.4011 61.4139 27.1853 57.6328 27.1853H53.1844ZM86.9921 21.068V20.966C87.1033 18.672 86.2136 16.6329 84.4343 14.9506C82.6549 13.2173 80.4863 12.3507 77.9285 12.2487C75.2595 12.1468 73.0353 12.9624 71.1447 14.7467C69.2542 16.4799 68.3089 18.57 68.3089 20.966C68.3089 23.311 69.1986 25.2991 70.9779 26.9814C72.7017 28.6637 74.8702 29.5303 77.3725 29.6323C80.2639 29.7342 82.6549 28.7147 84.6011 26.6756V29.2754H86.9365V21.068H86.9921ZM72.8685 16.327C74.2586 15.0525 75.8711 14.4408 77.8173 14.4408C79.6523 14.4408 81.2648 15.0525 82.5437 16.327C83.8226 17.6014 84.5455 19.0798 84.6011 20.8131C84.6567 22.6483 83.9894 24.2796 82.5437 25.605C81.1536 26.9304 79.4298 27.5932 77.4281 27.4912C75.5931 27.3893 73.9806 26.7265 72.7017 25.4011C71.4228 24.0757 70.8111 22.5463 70.8111 20.8131C70.8111 19.0288 71.4784 17.5505 72.8685 16.327ZM92.0521 24.3815H89.5499C89.5499 25.8089 90.0503 27.0324 91.0512 28.052C92.1077 29.0715 93.3866 29.6323 94.8879 29.7342C96.5561 29.8362 98.0018 29.3264 99.2807 28.2559C100.56 27.1344 101.116 25.8089 101.004 24.3306C100.838 22.1385 99.5587 20.6601 97.1121 19.8955L94.9991 19.2327C93.3866 18.723 92.5525 17.9073 92.6638 16.6838C92.7194 15.4094 93.8315 14.4408 95.2216 14.3898C96.6117 14.3898 97.8906 15.1545 97.8906 16.327V16.6838H100.448L100.393 16.1741C100.282 15.0016 99.7256 14.033 98.6691 13.2683C97.6126 12.5036 96.5005 12.0958 95.2216 12.1468C93.7759 12.1978 92.5525 12.7075 91.5517 13.6252C90.5508 14.5428 90.1059 15.6133 90.1615 16.9387C90.2728 19.0798 91.4405 20.4562 93.6646 21.1189L95.7776 21.7307C97.557 22.2405 98.4467 23.209 98.4467 24.6364C98.391 25.4521 98.1686 26.1148 97.6126 26.6246C97.0009 27.1853 96.2225 27.4402 95.166 27.4912C94.3875 27.5422 93.6646 27.2363 92.9974 26.6246C92.3301 26.0128 91.9965 25.4521 91.9965 24.8913V24.3815H92.0521ZM110.012 27.8481C107.232 27.8481 105.842 26.6246 105.842 24.1776V14.7467H110.012V12.6566H105.842V6.84506H103.395V24.4835C103.395 27.899 105.564 29.6323 110.012 29.6323V27.8481ZM114.516 6.84506H112.125V10.7194H114.516V6.84506ZM114.516 12.7075H112.125V29.3264H114.516V12.7075ZM135.869 21.017C135.869 18.672 134.979 16.6838 133.2 15.0016C131.476 13.2683 129.307 12.4017 126.749 12.2997C124.136 12.1978 121.856 13.0644 120.021 14.7977C118.131 16.5309 117.185 18.621 117.185 21.017C117.185 23.362 118.02 25.3501 119.799 27.0324C121.523 28.7147 123.691 29.5813 126.249 29.6833C128.862 29.7852 131.142 28.9186 132.977 27.1853C134.923 25.4521 135.869 23.413 135.869 21.017ZM121.523 25.4521C120.244 24.1266 119.632 22.5973 119.632 20.8641C119.688 19.0798 120.355 17.6014 121.689 16.327C123.08 15.0525 124.692 14.4408 126.638 14.4408C128.473 14.4408 130.03 15.0525 131.365 16.327C132.644 17.6014 133.366 19.0798 133.422 20.8131C133.478 22.6483 132.81 24.2286 131.365 25.605C129.975 26.9814 128.251 27.5932 126.249 27.4912C124.414 27.4402 122.857 26.7775 121.523 25.4521ZM154.329 19.8445C154.329 17.7034 153.551 15.9192 152.05 14.4918C150.548 13.0644 148.602 12.3507 146.322 12.3507C143.987 12.3507 142.096 13.0644 140.539 14.4918C139.038 15.9192 138.26 17.7034 138.26 19.8445V29.3264H140.706V19.5896C140.706 18.2132 141.262 16.9897 142.374 15.9701C143.486 14.9506 144.821 14.4408 146.322 14.4408C147.824 14.4408 149.103 14.9506 150.215 15.9701C151.327 16.9897 151.883 18.1622 151.883 19.5896V29.3264H154.329V19.8445Z" fill="#FFFFFF"/>
<path fill-rule="evenodd" clip-rule="evenodd" d="M17.0413 10.4645C18.0422 10.1076 19.0987 9.95471 20.2664 9.95471C20.7112 9.95471 21.1561 10.0057 21.6009 10.0567V15.7152C21.2117 15.5113 20.7112 15.4604 20.2664 15.4604C18.5426 15.4604 17.0969 16.7858 17.0969 18.3661L17.0413 10.4645Z" fill="url(#paint0_linear_75_386)"/>
<path d="M164.06 7.35483H161.614V29.8362H164.06V7.35483ZM174.792 9.49591H180.352V7.40581H166.785V9.49591H172.345V29.8872H174.792V9.49591Z" fill="#0F98D5"/>
<defs>
<linearGradient id="paint0_linear_75_386" x1="17.0489" y1="14.1311" x2="21.6201" y2="14.1311" gradientUnits="userSpaceOnUse">
<stop stop-color="#808080"/>
<stop offset="1" stop-color="white"/>
</linearGradient>
</defs>
</svg>
